<mxfile host="app.diagrams.net" agent="Mozilla/5.0 (Macintosh; Intel Mac OS X 10_15_7) AppleWebKit/537.36 (KHTML, like Gecko) Chrome/131.0.0.0 Safari/537.36" version="25.0.3">
  <diagram name="Page-1" id="qhKOYXE3ZXQVxRlNJmk0">
    <mxGraphModel dx="1434" dy="795" grid="1" gridSize="10" guides="1" tooltips="1" connect="1" arrows="1" fold="1" page="1" pageScale="1" pageWidth="850" pageHeight="1100" math="0" shadow="0">
      <root>
        <mxCell id="0" />
        <mxCell id="1" parent="0" />
        <mxCell id="v9Noc2cqZ05t78wvxA63-4" value="&lt;div&gt;authzen-interop-pdp-example&lt;/div&gt;(PDP)" style="rounded=1;whiteSpace=wrap;html=1;fillColor=#d5e8d4;strokeColor=#82b366;" parent="1" vertex="1">
          <mxGeometry x="587" y="270" width="190" height="125" as="geometry" />
        </mxCell>
        <mxCell id="v9Noc2cqZ05t78wvxA63-7" value="&lt;div&gt;authzen-todo-backend&lt;/div&gt;" style="rounded=1;whiteSpace=wrap;html=1;fillColor=#d5e8d4;strokeColor=#82b366;" parent="1" vertex="1">
          <mxGeometry x="590" y="60" width="190" height="120" as="geometry" />
        </mxCell>
        <mxCell id="v9Noc2cqZ05t78wvxA63-8" value="authzen-todo-application" style="rounded=1;whiteSpace=wrap;html=1;fillColor=#d5e8d4;strokeColor=#82b366;" parent="1" vertex="1">
          <mxGeometry x="310" y="60" width="190" height="120" as="geometry" />
        </mxCell>
        <mxCell id="v9Noc2cqZ05t78wvxA63-9" value="subject" style="rounded=1;whiteSpace=wrap;html=1;fillColor=#d5e8d4;strokeColor=#82b366;" parent="1" vertex="1">
          <mxGeometry x="40" y="60" width="190" height="120" as="geometry" />
        </mxCell>
        <mxCell id="v9Noc2cqZ05t78wvxA63-11" value="middleware&lt;div&gt;(PEP)&lt;/div&gt;" style="rounded=1;whiteSpace=wrap;html=1;fillColor=#fff2cc;strokeColor=#d6b656;" parent="1" vertex="1">
          <mxGeometry x="590" y="130" width="100" height="30" as="geometry" />
        </mxCell>
        <mxCell id="v9Noc2cqZ05t78wvxA63-12" value="" style="endArrow=classic;html=1;rounded=0;strokeWidth=2;" parent="1" edge="1">
          <mxGeometry width="50" height="50" relative="1" as="geometry">
            <mxPoint x="230" y="144.5" as="sourcePoint" />
            <mxPoint x="310" y="144.5" as="targetPoint" />
          </mxGeometry>
        </mxCell>
        <mxCell id="v9Noc2cqZ05t78wvxA63-13" value="" style="endArrow=classic;html=1;rounded=0;strokeWidth=2;entryX=0;entryY=0.5;entryDx=0;entryDy=0;" parent="1" edge="1" target="v9Noc2cqZ05t78wvxA63-11">
          <mxGeometry width="50" height="50" relative="1" as="geometry">
            <mxPoint x="500" y="144.5" as="sourcePoint" />
            <mxPoint x="560" y="144.5" as="targetPoint" />
          </mxGeometry>
        </mxCell>
        <mxCell id="v9Noc2cqZ05t78wvxA63-15" value="" style="endArrow=classic;html=1;rounded=0;strokeWidth=2;exitX=0.3;exitY=1;exitDx=0;exitDy=0;endSize=6;startSize=6;targetPerimeterSpacing=0;exitPerimeter=0;entryX=0.168;entryY=-0.008;entryDx=0;entryDy=0;entryPerimeter=0;" parent="1" target="v9Noc2cqZ05t78wvxA63-4" edge="1" source="v9Noc2cqZ05t78wvxA63-11">
          <mxGeometry width="50" height="50" relative="1" as="geometry">
            <mxPoint x="570" y="131.38" as="sourcePoint" />
            <mxPoint x="619" y="270" as="targetPoint" />
          </mxGeometry>
        </mxCell>
        <mxCell id="v9Noc2cqZ05t78wvxA63-16" value="" style="endArrow=classic;html=1;rounded=0;strokeWidth=2;endSize=6;startSize=6;targetPerimeterSpacing=0;jumpSize=6;exitX=0.537;exitY=0.029;exitDx=0;exitDy=0;exitPerimeter=0;entryX=0.75;entryY=1;entryDx=0;entryDy=0;" parent="1" edge="1">
          <mxGeometry width="50" height="50" relative="1" as="geometry">
            <mxPoint x="664.0000000000002" y="273.625" as="sourcePoint" />
            <mxPoint x="662" y="160" as="targetPoint" />
          </mxGeometry>
        </mxCell>
        <mxCell id="v9Noc2cqZ05t78wvxA63-18" value="" style="endArrow=classic;html=1;rounded=0;strokeWidth=2;endSize=6;startSize=6;targetPerimeterSpacing=0;jumpSize=6;exitX=0;exitY=0.25;exitDx=0;exitDy=0;entryX=1;entryY=0.25;entryDx=0;entryDy=0;" parent="1" source="v9Noc2cqZ05t78wvxA63-7" edge="1" target="v9Noc2cqZ05t78wvxA63-8">
          <mxGeometry width="50" height="50" relative="1" as="geometry">
            <mxPoint x="580" y="75" as="sourcePoint" />
            <mxPoint x="500" y="78" as="targetPoint" />
          </mxGeometry>
        </mxCell>
        <mxCell id="v9Noc2cqZ05t78wvxA63-19" value="" style="endArrow=classic;html=1;rounded=0;strokeWidth=2;endSize=6;startSize=6;targetPerimeterSpacing=0;jumpSize=6;" parent="1" edge="1">
          <mxGeometry width="50" height="50" relative="1" as="geometry">
            <mxPoint x="310" y="90" as="sourcePoint" />
            <mxPoint x="230" y="90" as="targetPoint" />
          </mxGeometry>
        </mxCell>
      </root>
    </mxGraphModel>
  </diagram>
</mxfile>
